<?xml version="1.0" encoding="utf-8"?>
<!-- Generator: Adobe Illustrator 26.0.3, SVG Export Plug-In . SVG Version: 6.00 Build 0)  -->
<svg version="1.1" id="Layer_1" xmlns="http://www.w3.org/2000/svg" xmlns:xlink="http://www.w3.org/1999/xlink" x="0px" y="0px"
	 viewBox="0 0 24 24" style="enable-background:new 0 0 24 24;" xml:space="preserve">
<style type="text/css">
	.st0{fill:#FF0000;}
	.st1{fill:#FFFFFF;}
</style>
<g id="g7433">
	<path id="path7429" class="st0" d="M426.5,329.3c-3.4-12.6-13.3-22.5-25.9-25.9c-23-6.3-115.1-6.3-115.1-6.3s-92.1,0-115.1,6.1
		c-12.4,3.4-22.5,13.6-25.9,26.2c-6.1,23-6.1,70.7-6.1,70.7s0,48,6.1,70.7c3.4,12.6,13.3,22.5,25.9,25.9
		c23.3,6.3,115.1,6.3,115.1,6.3s92.1,0,115.1-6.1c12.6-3.4,22.5-13.3,25.9-25.9c6.1-23,6.1-70.7,6.1-70.7S432.8,352.3,426.5,329.3
		L426.5,329.3z"/>
	<path id="polygon7431" class="st1" d="M256.2,355.9v88.2l76.6-44.1L256.2,355.9z"/>
</g>
</svg>
